# xmcd
#
# Track frame offsets: 
#        150
#        9469
#        25734
#        43179
#        57523
#        82089
#        104146
#        153254
#        173442
#        196524
#        228682
#        255744
#        275119
#        295830
#
# Disc length: 4152 seconds
#
# Revision: 1
# Processed by: cddbd v1.5.2PL0 Copyright (c) Steve Scherf et al.
# Submitted via: ExactAudioCopy v0.99pb3
#
DISCID=c110360e
DTITLE=Various Artist - Jazzadelic 06.3
DYEAR=2006
DGENRE=Jazz
TTITLE0=Anouar Brahem - Halfaouine
TTITLE1=Nouvelle Vague - The Killing Moon
TTITLE2=Benny Sings Rednose Distrikt - Miss Moral
TTITLE3=Joan As Police Woman - The Ride
TTITLE4=George Duke - In A Mellow Tone
TTITLE5=John Lee Hooker Jr. - Fed Up
TTITLE6=Yellowjackets - Jacketown
TTITLE7=Omar - It's So
TTITLE8=Waldemar Bastos - Viva Angola
TTITLE9=Thomas Mapfumo - Kuvarira Mukati and Suffer In Silence 
TTITLE10=Luzalul - Filhos Da Noite
TTITLE11=Arling and Cameron - Shake It
TTITLE12=Jhelisa - Walking On Air
TTITLE13=Goudsmit, Trujillo, Vierdag and Vink - Heroes
EXTD=YEAR: 2006
EXTT0=
EXTT1=
EXTT2=
EXTT3=
EXTT4=
EXTT5=
EXTT6=
EXTT7=
EXTT8=
EXTT9=
EXTT10=
EXTT11=
EXTT12=
EXTT13=
PLAYORDER=
